<svg xmlns="http://www.w3.org/2000/svg" xmlns:xlink="http://www.w3.org/1999/xlink" viewBox="0 0 980 315"><defs><style>.cls-1{fill:#7c4ea5;}.cls-2{fill:#312f96;}.cls-3{isolation:isolate;}.cls-4{fill:#eaf7fe;}.cls-5{clip-path:url(#clip-path);}.cls-6,.cls-8{fill:#b3b3b3;}.cls-6{opacity:0.9;mix-blend-mode:overlay;}.cls-7{clip-path:url(#clip-path-2);}.cls-8{opacity:0.45;mix-blend-mode:color-dodge;}</style><clipPath id="clip-path"><path id="_Compound_Clipping_Path_" data-name="&lt;Compound Clipping Path&gt;" class="cls-1" d="M880.42,291.43c-41.67,0-69.45-20.69-88.37-45.51L837,213.41c17.73,19.21,34.28,24.83,44.92,24.83,11.82,0,15.66-4.73,15.66-10,0-18-94-28.37-94-89.55C803.58,99.92,836.38,76,884,76c30.15,0,57,8.87,77.73,36.06l-43.15,36.06s-18.92-18.92-35.47-18.92c-10.64,0-13.59,4.73-13.59,9.46,0,18.92,93.69,23.64,93.69,86C963.17,270.15,922.68,291.43,880.42,291.43Z"/></clipPath><clipPath id="clip-path-2"><path id="_Compound_Clipping_Path_2" data-name="&lt;Compound Clipping Path&gt;" class="cls-2" d="M759.57,233.07c-55.27,0-95.17-40.79-95.17-106.4,0-65.91,39.9-106.4,95.17-106.4s95.17,40.49,95.17,106.4C854.73,192.29,814.83,233.07,759.57,233.07Zm0-154.57c-14.48,0-31,11.53-31,48.17,0,37.83,16.55,48.17,31,48.17,14.78,0,31-10.34,31-48.17C790.6,90,774,78.5,759.57,78.5Z"/></clipPath></defs><title>Artboard 1</title><g class="cls-3"><g id="outlined_text" data-name="outlined text"><path class="cls-4" d="M58.62,206.7c-22,0-37-13.76-37-35.95,0-28.72,19.78-56.07,50.05-56.07,21.84,0,36.81,13.93,36.81,36.12C108.5,179.53,88.72,206.7,58.62,206.7Zm12.21-69.31c-15.82,0-23.74,18.92-23.74,32.68C47.1,178,50.88,184,59.48,184,75.31,184,83,165.6,83,151.84,83,144.1,79.26,137.39,70.84,137.39Z"/><path class="cls-4" d="M173,143.75c-4-6-7.91-7.22-11.7-7.22-4.47,0-8.77,2.06-13.59,6.36-4.3,20.81-13.24,62.61-13.24,62.61h-25.8l19.09-89.44H153l-1.89,7.4c5.68-6,11.87-8.6,18.06-8.6,9.29,0,17.54,4.13,23,16Z"/><path class="cls-4" d="M257.64,201.71c-5.16,24.42-22.7,39.56-47.81,39.56-14.45,0-23.91-5.85-33.54-16.17l17.37-12.73c5.5,5.16,11,9.12,18.4,9.12,13.24,0,17.72-10,20.12-21.16-6,4-11.52,6.36-18.92,6.36-20.12,0-28.9-15.65-28.9-34.06,0-25.46,17.37-57.79,46.1-57.79,8.77,0,14.1,4.13,18.75,10.84.34-2.41,1.2-7.4,1.38-9.63H275.7Zm-12.9-59.34c-3.27-3.78-5.85-5.68-10.66-5.68-15,0-24.08,19.78-24.08,33,0,7.57,2.92,15.14,11.7,15.14,5.85,0,10.66-2.92,15.31-7.05Z"/><path class="cls-4" d="M348.75,205.5H323.12l1.2-5.33c-5.85,4-11.7,6.54-19.09,6.54-20.12,0-28.9-15.65-28.9-34.06,0-25.46,17.37-57.79,46.1-57.79,8.77,0,14.1,4.13,18.75,10.84.34-2.41,1.2-7.4,1.38-9.63h25.11Zm-12-63.12c-3.27-3.78-5.85-5.68-10.66-5.68-15,0-24.08,19.78-24.08,33,0,7.57,2.92,15.14,11.7,15.14,6,0,10.66-2.92,15.31-7.05Z"/><path class="cls-4" d="M442.25,205.5h-26L427.45,153a46,46,0,0,0,1.2-8.08c0-4.64-1.89-8.43-8.6-8.43-5,0-10.49,2.06-15.65,7.22L391.34,205.5h-25.8l18.92-89.44h25.46L408,122.94c8.43-5.85,15-8.26,22.36-8.26,18.92,0,24.42,11.7,24.42,25.28a81,81,0,0,1-1.89,15.48Z"/><path class="cls-4" d="M482.43,205.5H456.8l18.92-89.44h25.63Zm21.5-99.07H477.27l4.47-21.16H508.4Z"/><path class="cls-4" d="M532.94,183.66H568.2l-4.64,21.84H489.42l50.22-67.59H507.83l4.64-21.84H583Z"/><path class="cls-4" d="M655.13,165.77l-56.07.34a37.63,37.63,0,0,0-.52,6.19c0,7.57,3.78,13.93,12,13.93,6.88,0,12.38-3.1,17-7.91l20,10.49c-11.52,11.52-22.7,17.89-39.21,17.89-21.84,0-34.92-13.24-34.92-34.92,0-27.52,21.5-57.1,50.91-57.1,21.67,0,32.68,13.93,32.68,34.74A73.21,73.21,0,0,1,655.13,165.77Zm-51.25-16.86h28.89c.69-7.4-1.37-15.48-10.15-15.48C613.67,133.43,607.14,141.17,603.87,148.91Z"/><path id="_Compound_Clipping_Path_3" data-name="&lt;Compound Clipping Path&gt;" class="cls-1" d="M880.42,291.43c-41.67,0-69.45-20.69-88.37-45.51L837,213.41c17.73,19.21,34.28,24.83,44.92,24.83,11.82,0,15.66-4.73,15.66-10,0-18-94-28.37-94-89.55C803.58,99.92,836.38,76,884,76c30.15,0,57,8.87,77.73,36.06l-43.15,36.06s-18.92-18.92-35.47-18.92c-10.64,0-13.59,4.73-13.59,9.46,0,18.92,93.69,23.64,93.69,86C963.17,270.15,922.68,291.43,880.42,291.43Z"/><g class="cls-5"><rect class="cls-6" x="710" y="72" width="234" height="9"/><rect class="cls-6" x="701" y="90" width="234" height="9"/><rect class="cls-6" x="692" y="108" width="234" height="9"/><rect class="cls-6" x="683" y="126" width="234" height="9"/><rect class="cls-6" x="629" y="144" width="234" height="9"/><rect class="cls-6" x="665" y="162" width="234" height="9"/><rect class="cls-6" x="692" y="180" width="234" height="9"/><rect class="cls-6" x="701" y="198" width="234" height="9"/><rect class="cls-6" x="701" y="216" width="234" height="9"/><rect class="cls-6" x="710" y="234" width="234" height="9"/><rect class="cls-6" x="674" y="252" width="261" height="9"/><rect class="cls-6" x="683" y="270" width="234" height="9"/></g><path id="_Compound_Clipping_Path_4" data-name="&lt;Compound Clipping Path&gt;" class="cls-2" d="M759.57,233.07c-55.27,0-95.17-40.79-95.17-106.4,0-65.91,39.9-106.4,95.17-106.4s95.17,40.49,95.17,106.4C854.73,192.29,814.83,233.07,759.57,233.07Zm0-154.57c-14.48,0-31,11.53-31,48.17,0,37.83,16.55,48.17,31,48.17,14.78,0,31-10.34,31-48.17C790.6,90,774,78.5,759.57,78.5Z"/><g class="cls-7"><rect class="cls-8" x="737" y="18" width="234" height="9"/><rect class="cls-8" x="719" y="36" width="234" height="9"/><rect class="cls-8" x="701" y="54" width="234" height="9"/><rect class="cls-8" x="692" y="72" width="234" height="9"/><rect class="cls-8" x="683" y="90" width="234" height="9"/><rect class="cls-8" x="683" y="108" width="234" height="9"/><rect class="cls-8" x="683" y="126" width="234" height="9"/><rect class="cls-8" x="683" y="144" width="234" height="9"/><rect class="cls-8" x="692" y="162" width="234" height="9"/><rect class="cls-8" x="701" y="180" width="234" height="9"/><rect class="cls-8" x="719" y="198" width="234" height="9"/><rect class="cls-8" x="746" y="216" width="234" height="9"/></g></g></g></svg>